<svg stroke="#000" stroke-width="8" xmlns="http://www.w3.org/2000/svg" xmlns:xlink="http://www.w3.org/1999/xlink" version="1.1" style="shape-rendering:geometricPrecision; text-rendering:geometricPrecision; image-rendering:optimizeQuality; fill-rule:evenodd; clip-rule:evenodd" viewBox="250 250 250 250">
<g><path style="opacity:1" d="M 466.5,171.5 C 454.895,181.132 441.562,187.299 426.5,190C 436.171,193.564 446.171,195.397 456.5,195.5C 440.633,201.419 424.633,201.919 408.5,197C 399.724,193.224 393.224,187.058 389,178.5C 373.454,195.404 372.621,212.904 386.5,231C 389.371,232.935 392.371,234.601 395.5,236C 413.245,240.804 430.579,246.804 447.5,254C 451.167,257.667 454.833,261.333 458.5,265C 462.029,266.466 465.695,267.466 469.5,268C 473.546,269.471 474.379,271.971 472,275.5C 464.958,282.877 457.624,289.877 450,296.5C 446.289,295.103 443.956,292.437 443,288.5C 439.114,281.614 433.614,276.447 426.5,273C 423.144,271.818 419.81,271.651 416.5,272.5C 422.917,277.418 428.084,283.418 432,290.5C 434.085,297.835 436.085,305.502 438,313.5C 446.917,325.828 443.75,331.328 428.5,330C 420.535,328.024 413.869,324.024 408.5,318C 412.466,308.237 409.8,300.57 400.5,295C 391.363,293.84 382.696,291.173 374.5,287C 372.649,285.316 370.982,283.483 369.5,281.5C 360.822,297.523 352.655,313.857 345,330.5C 342.716,347.299 345.549,363.132 353.5,378C 353.167,378.333 352.833,378.667 352.5,379C 353.849,379.772 354.682,380.939 355,382.5C 357.575,395.434 359.742,408.434 361.5,421.5C 403.57,436.598 425.903,466.598 428.5,511.5C 426.495,550.641 408.162,579.141 373.5,597C 338.759,611.183 306.093,607.183 275.5,585C 241.656,554.458 232.49,517.624 248,474.5C 260.352,447.814 280.519,429.98 308.5,421C 306.09,419.438 304.756,417.271 304.5,414.5C 305.69,407.74 307.19,401.074 309,394.5C 309.743,383.468 306.577,373.635 299.5,365C 298.167,364.333 296.833,363.667 295.5,363C 286.866,362.344 278.7,360.177 271,356.5C 270.667,356.833 270.333,357.167 270,357.5C 263.099,354.128 256.265,350.961 249.5,348C 255.047,357.973 260.213,368.139 265,378.5C 267.134,382.363 267.634,386.363 266.5,390.5C 260.876,386.92 256.376,382.253 253,376.5C 244.748,362.998 236.748,349.331 229,335.5C 222.102,312.066 223.435,289.066 233,266.5C 238.472,253.548 245.472,241.548 254,230.5C 268,213.833 282,197.167 296,180.5C 302.122,170.013 305.122,158.68 305,146.5C 305.998,136.65 310.832,129.483 319.5,125C 340.472,119.331 360.805,120.998 380.5,130C 394.5,138.667 408.5,147.333 422.5,156C 438.74,164.721 451.907,161.554 462,146.5C 464.889,137.413 466.223,128.08 466,118.5C 466.406,114.678 468.072,111.678 471,109.5C 474.403,110.896 476.236,113.396 476.5,117C 476.904,127.838 476.404,138.671 475,149.5C 471.886,160.289 465.386,168.456 455.5,174C 459.241,173.702 462.908,172.869 466.5,171.5 Z"/></g>
</svg>